<svg height="512pt" viewBox="0 0 512.02369 512" width="512pt" xmlns="http://www.w3.org/2000/svg"><path d="m461.039062 109.238281c1.597657 1.601563 3.769532 2.5 6.03125 2.5.597657 0 1.191407-.0625 1.773438-.1875 2.828125-.597656 5.160156-2.585937 6.195312-5.28125l36.394532-94.660156c1.210937-3.148437.453125-6.714844-1.929688-9.101563-2.386718-2.382812-5.953125-3.136718-9.101562-1.925781l-94.617188 36.394531c-2.695312 1.039063-4.683594 3.367188-5.28125 6.191407-.601562 2.824219.269532 5.761719 2.308594 7.804687l23.042969 23.039063-96.554688 96.667969c-7.867187-12.148438-13.101562-25.8125-15.359375-40.109376-3.976562-18.605468-12.945312-35.777343-25.941406-49.671874-25.527344-25.996094-61.203125-39.445313-97.539062-36.769532-12.183594.785156-24.328126 2.457032-36.078126 4.0625-9.90625 1.363282-20.164062 2.773438-30.199218 3.601563-18.363282 1.71875-36.792969-2.527344-52.554688-12.109375-11.855468-7.0625-22.71875-15.671875-32.300781-25.601563-.28125-.28125-.539063-.578125-.851563-.851562-3.054687-3.21875-5.976562-6.539063-8.757812-9.984375-2.929688-3.671875-8.277344-4.28125-11.960938-1.367188-.15625.128906-.222656.316406-.378906.445313-2.230468 1.792969-3.414062 4.589843-3.148437 7.441406l38.316406 379.367187-50.046875 50.082032c-2.4414062 2.4375-3.171875 6.109375-1.851562 9.296875 1.320312 3.1875 4.433593 5.265625 7.882812 5.269531h49.691406v49.695312c0 3.453126 2.078125 6.5625 5.265625 7.882813s6.859375.589844 9.300781-1.847656l50.089844-50.046875 379.390625 38.3125c.300781 0 .582031.042968.855469.042968 2.609375-.015624 5.066406-1.226562 6.671875-3.285156.101563-.121094.265625-.164062.359375-.289062 2.941406-3.679688 2.34375-9.046875-1.332031-11.992188-3.492188-2.789062-6.828125-5.757812-10.105469-8.863281-.210938-.207031-.441406-.402344-.65625-.617187-9.976562-9.609376-18.621094-20.515626-25.703125-32.425782-9.574219-15.765625-13.828125-34.195312-12.125-52.566406.855469-10.015625 2.238281-20.246094 3.601563-30.136719 1.613281-11.769531 3.277343-23.894531 4.070312-36.140625 2.679688-36.335937-10.769531-72.011718-36.769531-97.535156-13.90625-12.992188-31.085938-21.953125-49.699219-25.914062-14.296875-2.261719-27.957031-7.492188-40.105469-15.363282l96.597657-96.597656zm-427.351562-76.648437c8.429688 8.148437 17.289062 15.839844 26.539062 23.042968 14.523438 11.902344 31.285157 20.777344 49.296876 26.09375 7.449218 2.003907 14.738281 3.59375 22.015624 5.179688 8.160157 1.785156 16.597657 3.617188 25.082032 6.066406 27.570312 9.347656 52.460937 25.25 72.53125 46.335938 11.089844 11.296875 20.511718 24.117187 27.980468 38.078125 6.941407 14.226562 15.640626 27.523437 25.898438 39.574219l-125.855469 125.808593-70.25 14.046875c-1.652343.332032-3.167969 1.144532-4.359375 2.335938l-14.4375 14.429687zm33.066406 404.125h-37.621094l63.675782-63.667969 57.699218-11.539063-11.542968 57.703126-63.675782 63.667968v-37.632812c0-4.710938-3.820312-8.53125-8.535156-8.53125zm71.679688 7.167968 14.429687-14.429687c1.191407-1.195313 2.003907-2.710937 2.339844-4.363281l14.046875-70.253906 125.8125-125.824219c12.078125 10.230469 25.375 18.929687 39.585938 25.898437 13.941406 7.460938 26.75 16.871094 38.035156 27.945313 21.09375 20.074219 37.003906 44.964843 46.371094 72.535156 2.449218 8.480469 4.265624 16.914063 6.058593 25.078125 1.59375 7.289062 3.171875 14.566406 5.1875 22.015625 5.324219 18.011719 14.195313 34.777344 26.09375 49.308594 7.203125 9.246093 14.894531 18.101562 23.039063 26.527343zm280.953125-207.5c22.15625 22.136719 33.632812 52.785157 31.460937 84.03125-.75 11.59375-2.371094 23.449219-3.949218 34.917969-1.296876 9.386719-2.5625 19.128907-3.464844 28.867188-.554688-2.464844-1.109375-4.933594-1.648438-7.398438-1.824218-8.429687-3.726562-17.152343-6.332031-26.15625-10.109375-30.472656-27.59375-57.976562-50.890625-80.066406-12.464844-12.203125-26.605469-22.566406-41.992188-30.78125-15.324218-7.289063-29.386718-16.972656-41.667968-28.679687-11.707032-12.289063-21.390625-26.355469-28.691406-41.675782-8.226563-15.410156-18.613282-29.5625-30.847657-42.027344-22.082031-23.285156-49.570312-40.757812-80.023437-50.867187-9.011719-2.558594-17.734375-4.496094-26.164063-6.332031l-7.398437-1.636719c9.753906-.855469 19.488281-2.175781 28.925781-3.472656 11.445313-1.570313 23.28125-3.203125 34.859375-3.945313 31.257812-2.183594 61.921875 9.292969 84.0625 31.464844 10.925781 11.601562 18.433594 25.992188 21.699219 41.589844 4.183593 19.15625 9.59375 39.175781 25.457031 55.046875 15.863281 15.875 35.839844 21.277343 55.039062 25.464843 15.585938 3.253907 29.96875 10.75 41.566407 21.65625zm4.777343-188.226562 64.445313-24.746094-24.789063 64.441406-13.789062-13.804687 4-4.003906c2.21875-2.140625 3.109375-5.3125 2.328125-8.296875s-3.113281-5.3125-6.09375-6.09375c-2.984375-.78125-6.15625.109375-8.300781 2.324218l-4 4.003907zm0 0"/><path d="m95.871094 424.671875c2.261718 0 4.433594-.898437 6.03125-2.5l14.558594-14.558594c3.234374-3.347656 3.1875-8.667969-.105469-11.960937-3.289063-3.292969-8.613281-3.339844-11.960938-.105469l-14.558593 14.558594c-2.4375 2.441406-3.167969 6.109375-1.847657 9.300781 1.320313 3.1875 4.429688 5.265625 7.882813 5.265625zm0 0"/></svg>